<svg xmlns="http://www.w3.org/2000/svg" viewBox="0 0 800 200" width="800" height="200">
<defs><style>
@keyframes fall{0%{transform:translateY(-200px);opacity:0}6%{opacity:1}88%{opacity:.9}100%{transform:translateY(220px);opacity:0}}
.s{animation:fall linear infinite}.m{font-family:"Courier New",Courier,monospace;font-size:13px}
</style></defs>
<rect width="800" height="200" fill="#000000"/>
<g class="m s" style="animation-duration:4.2s;animation-delay:0s">
<text x="8" y="0" fill="#F0FFF0">ｼ</text><text x="8" y="18" fill="#00FF41">ﾆ</text><text x="8" y="36" fill="#00EE35">7</text><text x="8" y="54" fill="#00CC2E">ﾊ</text><text x="8" y="72" fill="#00AA25">2</text><text x="8" y="90" fill="#00881D">ｹ</text><text x="8" y="108" fill="#006615">ﾘ</text><text x="8" y="126" fill="#00440E">ﾃ</text><text x="8" y="144" fill="#002E08">9</text><text x="8" y="162" fill="#001A04">ﾒ</text><text x="8" y="180" fill="#000D02">A</text>
</g>
<g class="m s" style="animation-duration:5.1s;animation-delay:0.8s">
<text x="40" y="0" fill="#F0FFF0">0</text><text x="40" y="18" fill="#00FF41">ﾕ</text><text x="40" y="36" fill="#00EE35">ｨ</text><text x="40" y="54" fill="#00CC2E">ﾅ</text><text x="40" y="72" fill="#00AA25">ﾒ</text><text x="40" y="90" fill="#00881D">5</text><text x="40" y="108" fill="#006615">ｺ</text><text x="40" y="126" fill="#00440E">ﾌ</text><text x="40" y="144" fill="#002E08">ﾝ</text><text x="40" y="162" fill="#001A04">3</text><text x="40" y="180" fill="#000D02">ｻ</text>
</g>
<g class="m s" style="animation-duration:3.7s;animation-delay:1.5s">
<text x="72" y="0" fill="#F0FFF0">ﾊ</text><text x="72" y="18" fill="#00FF41">ﾁ</text><text x="72" y="36" fill="#00EE35">ｸ</text><text x="72" y="54" fill="#00CC2E">ｶ</text><text x="72" y="72" fill="#00AA25">ﾈ</text><text x="72" y="90" fill="#00881D">1</text><text x="72" y="108" fill="#006615">ﾖ</text><text x="72" y="126" fill="#00440E">ﾀ</text><text x="72" y="144" fill="#002E08">ｮ</text><text x="72" y="162" fill="#001A04">8</text><text x="72" y="180" fill="#000D02">Z</text>
</g>
<g class="m s" style="animation-duration:4.8s;animation-delay:0.3s">
<text x="104" y="0" fill="#F0FFF0">ｿ</text><text x="104" y="18" fill="#00FF41">ﾎ</text><text x="104" y="36" fill="#00EE35">4</text><text x="104" y="54" fill="#00CC2E">ｳ</text><text x="104" y="72" fill="#00AA25">ﾍ</text><text x="104" y="90" fill="#00881D">ﾜ</text><text x="104" y="108" fill="#006615">ｱ</text><text x="104" y="126" fill="#00440E">ﾏ</text><text x="104" y="144" fill="#002E08">6</text><text x="104" y="162" fill="#001A04">ﾗ</text><text x="104" y="180" fill="#000D02">ﾃ</text>
</g>
<g class="m s" style="animation-duration:5.5s;animation-delay:1.2s">
<text x="136" y="0" fill="#F0FFF0">ﾕ</text><text x="136" y="18" fill="#00FF41">ｦ</text><text x="136" y="36" fill="#00EE35">ﾂ</text><text x="136" y="54" fill="#00CC2E">ﾉ</text><text x="136" y="72" fill="#00AA25">0</text><text x="136" y="90" fill="#00881D">ﾑ</text><text x="136" y="108" fill="#006615">ｼ</text><text x="136" y="126" fill="#00440E">ﾆ</text><text x="136" y="144" fill="#002E08">ﾊ</text><text x="136" y="162" fill="#001A04">5</text><text x="136" y="180" fill="#000D02">ﾒ</text>
</g>
<g class="m s" style="animation-duration:4.0s;animation-delay:2.1s">
<text x="168" y="0" fill="#F0FFF0">ｺ</text><text x="168" y="18" fill="#00FF41">9</text><text x="168" y="36" fill="#00EE35">ﾋ</text><text x="168" y="54" fill="#00CC2E">ﾛ</text><text x="168" y="72" fill="#00AA25">ﾃ</text><text x="168" y="90" fill="#00881D">ｷ</text><text x="168" y="108" fill="#006615">ﾈ</text><text x="168" y="126" fill="#00440E">2</text><text x="168" y="144" fill="#002E08">ﾌ</text><text x="168" y="162" fill="#001A04">ｻ</text><text x="168" y="180" fill="#000D02">ﾀ</text>
</g>
<g class="m s" style="animation-duration:3.5s;animation-delay:0.6s">
<text x="200" y="0" fill="#F0FFF0">ﾝ</text><text x="200" y="18" fill="#00FF41">7</text><text x="200" y="36" fill="#00EE35">ｵ</text><text x="200" y="54" fill="#00CC2E">ﾏ</text><text x="200" y="72" fill="#00AA25">ﾘ</text><text x="200" y="90" fill="#00881D">ｪ</text><text x="200" y="108" fill="#006615">ﾖ</text><text x="200" y="126" fill="#00440E">3</text><text x="200" y="144" fill="#002E08">ﾅ</text><text x="200" y="162" fill="#001A04">ｱ</text><text x="200" y="180" fill="#000D02">8</text>
</g>
<g class="m s" style="animation-duration:5.8s;animation-delay:1.9s">
<text x="232" y="0" fill="#F0FFF0">ﾒ</text><text x="232" y="18" fill="#00FF41">ﾅ</text><text x="232" y="36" fill="#00EE35">ｿ</text><text x="232" y="54" fill="#00CC2E">6</text><text x="232" y="72" fill="#00AA25">ﾁ</text><text x="232" y="90" fill="#00881D">ﾜ</text><text x="232" y="108" fill="#006615">ｴ</text><text x="232" y="126" fill="#00440E">ﾕ</text><text x="232" y="144" fill="#002E08">1</text><text x="232" y="162" fill="#001A04">ｹ</text><text x="232" y="180" fill="#000D02">ﾌ</text>
</g>
<g class="m s" style="animation-duration:4.4s;animation-delay:0.4s">
<text x="264" y="0" fill="#F0FFF0">ｸ</text><text x="264" y="18" fill="#00FF41">ﾃ</text><text x="264" y="36" fill="#00EE35">4</text><text x="264" y="54" fill="#00CC2E">ﾋ</text><text x="264" y="72" fill="#00AA25">ｶ</text><text x="264" y="90" fill="#00881D">ﾝ</text><text x="264" y="108" fill="#006615">ﾆ</text><text x="264" y="126" fill="#00440E">9</text><text x="264" y="144" fill="#002E08">ﾊ</text><text x="264" y="162" fill="#001A04">ﾔ</text><text x="264" y="180" fill="#000D02">ﾛ</text>
</g>
<g class="m s" style="animation-duration:3.9s;animation-delay:2.7s">
<text x="296" y="0" fill="#F0FFF0">0</text><text x="296" y="18" fill="#00FF41">ﾗ</text><text x="296" y="36" fill="#00EE35">ｼ</text><text x="296" y="54" fill="#00CC2E">ﾎ</text><text x="296" y="72" fill="#00AA25">ﾒ</text><text x="296" y="90" fill="#00881D">5</text><text x="296" y="108" fill="#006615">ｳ</text><text x="296" y="126" fill="#00440E">ﾏ</text><text x="296" y="144" fill="#002E08">ｺ</text><text x="296" y="162" fill="#001A04">ﾖ</text><text x="296" y="180" fill="#000D02">7</text>
</g>
<g class="m s" style="animation-duration:5.2s;animation-delay:0.9s">
<text x="328" y="0" fill="#F0FFF0">ｱ</text><text x="328" y="18" fill="#00FF41">ﾕ</text><text x="328" y="36" fill="#00EE35">2</text><text x="328" y="54" fill="#00CC2E">ﾁ</text><text x="328" y="72" fill="#00AA25">ｿ</text><text x="328" y="90" fill="#00881D">ﾈ</text><text x="328" y="108" fill="#006615">8</text><text x="328" y="126" fill="#00440E">ﾜ</text><text x="328" y="144" fill="#002E08">ｵ</text><text x="328" y="162" fill="#001A04">ﾆ</text><text x="328" y="180" fill="#000D02">3</text>
</g>
<g class="m s" style="animation-duration:4.6s;animation-delay:1.6s">
<text x="360" y="0" fill="#F0FFF0">ﾋ</text><text x="360" y="18" fill="#00FF41">1</text><text x="360" y="36" fill="#00EE35">ｲ</text><text x="360" y="54" fill="#00CC2E">ﾌ</text><text x="360" y="72" fill="#00AA25">ﾛ</text><text x="360" y="90" fill="#00881D">ｶ</text><text x="360" y="108" fill="#006615">ﾃ</text><text x="360" y="126" fill="#00440E">6</text><text x="360" y="144" fill="#002E08">ﾘ</text><text x="360" y="162" fill="#001A04">ｷ</text><text x="360" y="180" fill="#000D02">ﾀ</text>
</g>
<g class="m s" style="animation-duration:3.4s;animation-delay:3.1s">
<text x="392" y="0" fill="#F0FFF0">ﾒ</text><text x="392" y="18" fill="#00FF41">ｼ</text><text x="392" y="36" fill="#00EE35">9</text><text x="392" y="54" fill="#00CC2E">ｸ</text><text x="392" y="72" fill="#00AA25">ﾅ</text><text x="392" y="90" fill="#00881D">ﾝ</text><text x="392" y="108" fill="#006615">4</text><text x="392" y="126" fill="#00440E">ﾔ</text><text x="392" y="144" fill="#002E08">ｮ</text><text x="392" y="162" fill="#001A04">ﾏ</text><text x="392" y="180" fill="#000D02">0</text>
</g>
<g class="m s" style="animation-duration:5.6s;animation-delay:0.2s">
<text x="424" y="0" fill="#F0FFF0">ﾖ</text><text x="424" y="18" fill="#00FF41">ｱ</text><text x="424" y="36" fill="#00EE35">ﾊ</text><text x="424" y="54" fill="#00CC2E">7</text><text x="424" y="72" fill="#00AA25">ﾆ</text><text x="424" y="90" fill="#00881D">ｴ</text><text x="424" y="108" fill="#006615">ﾕ</text><text x="424" y="126" fill="#00440E">2</text><text x="424" y="144" fill="#002E08">ｿ</text><text x="424" y="162" fill="#001A04">ﾁ</text><text x="424" y="180" fill="#000D02">5</text>
</g>
<g class="m s" style="animation-duration:4.1s;animation-delay:2.3s">
<text x="456" y="0" fill="#F0FFF0">ｳ</text><text x="456" y="18" fill="#00FF41">ﾎ</text><text x="456" y="36" fill="#00EE35">3</text><text x="456" y="54" fill="#00CC2E">ﾋ</text><text x="456" y="72" fill="#00AA25">ｺ</text><text x="456" y="90" fill="#00881D">8</text><text x="456" y="108" fill="#006615">ﾗ</text><text x="456" y="126" fill="#00440E">ｵ</text><text x="456" y="144" fill="#002E08">ﾒ</text><text x="456" y="162" fill="#001A04">1</text><text x="456" y="180" fill="#000D02">ﾜ</text>
</g>
<g class="m s" style="animation-duration:5.3s;animation-delay:1.0s">
<text x="488" y="0" fill="#F0FFF0">ﾃ</text><text x="488" y="18" fill="#00FF41">ｦ</text><text x="488" y="36" fill="#00EE35">6</text><text x="488" y="54" fill="#00CC2E">ﾌ</text><text x="488" y="72" fill="#00AA25">ｶ</text><text x="488" y="90" fill="#00881D">ﾈ</text><text x="488" y="108" fill="#006615">ﾛ</text><text x="488" y="126" fill="#00440E">4</text><text x="488" y="144" fill="#002E08">ｼ</text><text x="488" y="162" fill="#001A04">ﾝ</text><text x="488" y="180" fill="#000D02">9</text>
</g>
<g class="m s" style="animation-duration:4.7s;animation-delay:2.8s">
<text x="520" y="0" fill="#F0FFF0">ﾕ</text><text x="520" y="18" fill="#00FF41">ｷ</text><text x="520" y="36" fill="#00EE35">0</text><text x="520" y="54" fill="#00CC2E">ｱ</text><text x="520" y="72" fill="#00AA25">ﾔ</text><text x="520" y="90" fill="#00881D">ﾘ</text><text x="520" y="108" fill="#006615">7</text><text x="520" y="126" fill="#00440E">ﾀ</text><text x="520" y="144" fill="#002E08">ｨ</text><text x="520" y="162" fill="#001A04">ﾒ</text><text x="520" y="180" fill="#000D02">ﾆ</text>
</g>
<g class="m s" style="animation-duration:3.6s;animation-delay:0.5s">
<text x="552" y="0" fill="#F0FFF0">ｸ</text><text x="552" y="18" fill="#00FF41">5</text><text x="552" y="36" fill="#00EE35">ﾊ</text><text x="552" y="54" fill="#00CC2E">ｴ</text><text x="552" y="72" fill="#00AA25">ﾅ</text><text x="552" y="90" fill="#00881D">ﾏ</text><text x="552" y="108" fill="#006615">2</text><text x="552" y="126" fill="#00440E">ｺ</text><text x="552" y="144" fill="#002E08">ﾋ</text><text x="552" y="162" fill="#001A04">ﾖ</text><text x="552" y="180" fill="#000D02">8</text>
</g>
<g class="m s" style="animation-duration:5.0s;animation-delay:1.7s">
<text x="584" y="0" fill="#F0FFF0">ｿ</text><text x="584" y="18" fill="#00FF41">ﾁ</text><text x="584" y="36" fill="#00EE35">ﾝ</text><text x="584" y="54" fill="#00CC2E">3</text><text x="584" y="72" fill="#00AA25">ｶ</text><text x="584" y="90" fill="#00881D">ﾗ</text><text x="584" y="108" fill="#006615">1</text><text x="584" y="126" fill="#00440E">ﾌ</text><text x="584" y="144" fill="#002E08">ｱ</text><text x="584" y="162" fill="#001A04">ﾃ</text><text x="584" y="180" fill="#000D02">6</text>
</g>
<g class="m s" style="animation-duration:4.3s;animation-delay:3.4s">
<text x="616" y="0" fill="#F0FFF0">ﾒ</text><text x="616" y="18" fill="#00FF41">ｼ</text><text x="616" y="36" fill="#00EE35">9</text><text x="616" y="54" fill="#00CC2E">ｲ</text><text x="616" y="72" fill="#00AA25">ﾎ</text><text x="616" y="90" fill="#00881D">ﾕ</text><text x="616" y="108" fill="#006615">4</text><text x="616" y="126" fill="#00440E">ｸ</text><text x="616" y="144" fill="#002E08">ﾜ</text><text x="616" y="162" fill="#001A04">0</text><text x="616" y="180" fill="#000D02">ﾆ</text>
</g>
<g class="m s" style="animation-duration:5.7s;animation-delay:0.7s">
<text x="648" y="0" fill="#F0FFF0">ｵ</text><text x="648" y="18" fill="#00FF41">7</text><text x="648" y="36" fill="#00EE35">ﾈ</text><text x="648" y="54" fill="#00CC2E">ﾔ</text><text x="648" y="72" fill="#00AA25">ｻ</text><text x="648" y="90" fill="#00881D">ﾋ</text><text x="648" y="108" fill="#006615">ﾛ</text><text x="648" y="126" fill="#00440E">5</text><text x="648" y="144" fill="#002E08">ﾁ</text><text x="648" y="162" fill="#001A04">ｮ</text><text x="648" y="180" fill="#000D02">ﾀ</text>
</g>
<g class="m s" style="animation-duration:4.5s;animation-delay:2.0s">
<text x="680" y="0" fill="#F0FFF0">ﾘ</text><text x="680" y="18" fill="#00FF41">2</text><text x="680" y="36" fill="#00EE35">ﾅ</text><text x="680" y="54" fill="#00CC2E">ｷ</text><text x="680" y="72" fill="#00AA25">8</text><text x="680" y="90" fill="#00881D">ｱ</text><text x="680" y="108" fill="#006615">ﾒ</text><text x="680" y="126" fill="#00440E">ﾃ</text><text x="680" y="144" fill="#002E08">1</text><text x="680" y="162" fill="#001A04">ﾌ</text><text x="680" y="180" fill="#000D02">ﾖ</text>
</g>
<g class="m s" style="animation-duration:3.8s;animation-delay:1.3s">
<text x="712" y="0" fill="#F0FFF0">ｶ</text><text x="712" y="18" fill="#00FF41">ﾊ</text><text x="712" y="36" fill="#00EE35">6</text><text x="712" y="54" fill="#00CC2E">ｼ</text><text x="712" y="72" fill="#00AA25">ﾝ</text><text x="712" y="90" fill="#00881D">3</text><text x="712" y="108" fill="#006615">ﾕ</text><text x="712" y="126" fill="#00440E">ﾆ</text><text x="712" y="144" fill="#002E08">ﾏ</text><text x="712" y="162" fill="#001A04">9</text><text x="712" y="180" fill="#000D02">ｳ</text>
</g>
<g class="m s" style="animation-duration:5.4s;animation-delay:2.6s">
<text x="744" y="0" fill="#F0FFF0">ﾁ</text><text x="744" y="18" fill="#00FF41">0</text><text x="744" y="36" fill="#00EE35">ｿ</text><text x="744" y="54" fill="#00CC2E">ﾋ</text><text x="744" y="72" fill="#00AA25">7</text><text x="744" y="90" fill="#00881D">ﾗ</text><text x="744" y="108" fill="#006615">ｵ</text><text x="744" y="126" fill="#00440E">ﾒ</text><text x="744" y="144" fill="#002E08">4</text><text x="744" y="162" fill="#001A04">ｲ</text><text x="744" y="180" fill="#000D02">ﾃ</text>
</g>
<g class="m s" style="animation-duration:4.9s;animation-delay:0.1s">
<text x="776" y="0" fill="#F0FFF0">ﾈ</text><text x="776" y="18" fill="#00FF41">5</text><text x="776" y="36" fill="#00EE35">ｶ</text><text x="776" y="54" fill="#00CC2E">ﾜ</text><text x="776" y="72" fill="#00AA25">2</text><text x="776" y="90" fill="#00881D">ﾌ</text><text x="776" y="108" fill="#006615">ｱ</text><text x="776" y="126" fill="#00440E">8</text><text x="776" y="144" fill="#002E08">ﾕ</text><text x="776" y="162" fill="#001A04">ﾆ</text><text x="776" y="180" fill="#000D02">ｼ</text>
</g>
</svg>
